#!OML:ASF I:\Actors\actors\Patient Classification 2\Patient 1\Session 1\actor1.ASF
:FULLY-SPECIFIED
:DEGREES
128
root -0.61323 18.7652 4.42079 3.09739 -0.873184 -1.32796
lowerback -2.86151 -0.322835 -1.68545
upperback -1.67199 -0.393508 1.44272
thorax -0.0889317 -0.179638 2.41429
lowerneck -11.725 -4.44393 -6.3661
upperneck 34.1538 -6.06711 3.15173
head 13.8567 -3.07511 1.4472
rclavicle -6.3549e-015 1.05356e-014
rhumerus -21.1041 25.0786 -89.6021
rradius 64.2065
rwrist -0.915496
rhand -11.6401 -35.5908
rfingers 7.12502
rthumb 14.4038 -65.071
lclavicle -6.3549e-015 1.05356e-014
lhumerus -1.28058 -42.2568 84.235
lradius 65.8887
lwrist 7.24963
lhand 4.80943 -26.5742
lfingers 7.12502
lthumb 30.1882 0.978832
rfemur 3.90557 -0.0976636 14.9638
rtibia 7.15625e-015
rfoot -14.5504 -10.2964
rtoes -3.6313
lfemur -7.3075 -6.84279 -13.2826
ltibia 21.4597
lfoot -21.0172 10.6474
ltoes -55.3148
129
root -0.61296 18.7646 4.42323 3.09462 -0.903701 -1.3014
lowerback -2.87555 -0.384793 -1.72945
upperback -1.63512 -0.475182 1.49729
thorax -0.0380952 -0.220985 2.49267
lowerneck -11.7854 -4.36977 -6.37914
upperneck 34.0973 -5.9343 3.11398
head 13.8355 -3.02329 1.45374
rclavicle 8.02282e-015 -6.16232e-015
rhumerus -20.6323 25.7628 -89.7052
rradius 64.1898
rwrist -1.02965
rhand -13.3328 -34.8446
rfingers 7.12502
rthumb 12.7724 -64.4339
lclavicle 8.02282e-015 -6.16232e-015
lhumerus -0.256772 -42.7082 83.8676
lradius 65.6368
lwrist 7.08231
lhand 4.89167 -26.7344
lfingers 7.12502
lthumb 30.2666 0.804262
rfemur 3.90749 -0.0685191 14.9374
rtibia 7.95139e-015
rfoot -14.5273 -10.3424
rtoes -4.01185
lfemur -7.28126 -6.85173 -13.316
ltibia 21.4506
lfoot -21.0408 10.6569
ltoes -55.32
130
root -0.612186 18.7644 4.42567 3.06418 -0.990277 -1.28078
lowerback -2.84564 -0.422462 -1.70994
upperback -1.5818 -0.526458 1.51069
thorax 0.00270418 -0.247744 2.49395
lowerneck -11.8762 -4.30918 -6.35865
upperneck 34.0291 -5.83526 3.09553
head 13.8171 -2.97894 1.4562
rclavicle -4.91371e-015 -8.74653e-015
rhumerus -20.1856 26.3487 -89.8339
rradius 64.1716
rwrist -1.09823
rhand -13.6511 -34.3239
rfingers 7.12502
rthumb 12.4655 -63.9321
lclavicle -4.91371e-015 -8.74653e-015
lhumerus 0.76322 -43.1312 83.4391
lradius 65.2867
lwrist 6.83849
lhand 4.99125 -27.0153
lfingers 7.12502
lthumb 30.3616 0.505915
rfemur 3.93347 0.0191683 14.9125
rtibia -1.03368e-014
rfoot -14.4828 -10.4
rtoes -4.36328
lfemur -7.21164 -6.81403 -13.356
ltibia 21.4309
lfoot -21.0291 10.6732
ltoes -55.3581
131
root -0.613528 18.7647 4.42997 3.0334 -1.09973 -1.23768
lowerback -2.83048 -0.441887 -1.72106
upperback -1.51049 -0.552483 1.50122
thorax 0.0688236 -0.26224 2.48948
lowerneck -11.9703 -4.27501 -6.25915
upperneck 33.9322 -5.77152 3.00871
head 13.7833 -2.94863 1.41183
rclavicle 4.09062e-015 -2.26615e-014
rhumerus -19.7404 26.8615 -89.9397
rradius 64.2332
rwrist -1.21475
rhand -13.8033 -34.0292
rfingers 7.12502
rthumb 12.3187 -63.6463
lclavicle 4.09062e-015 -2.26615e-014
lhumerus 1.80684 -43.6303 82.8722
lradius 64.9934
lwrist 6.61582
lhand 5.00673 -27.2748
lfingers 7.12502
lthumb 30.3764 0.243667
rfemur 3.97085 0.128497 14.8652
rtibia 5.56597e-015
rfoot -14.4911 -10.4002
rtoes -4.15092
lfemur -7.12496 -6.81723 -13.423
ltibia 21.4114
lfoot -21.0619 10.7452
ltoes -55.3533
132
root -0.612357 18.7641 4.43455 3.05087 -1.19305 -1.21215
lowerback -2.81409 -0.472149 -1.67948
upperback -1.49583 -0.594135 1.5104
thorax 0.0767354 -0.283524 2.47435
lowerneck -12.0092 -4.22029 -6.23244
upperneck 33.8813 -5.67889 2.96589
head 13.7608 -2.91026 1.40363
rclavicle 4.16827e-015 -5.76476e-015
rhumerus -19.4217 27.3228 -90.0574
rradius 64.3159
rwrist -1.30228
rhand -13.6071 -33.9923
rfingers 7.12502
rthumb 12.5079 -63.598
lclavicle 4.16827e-015 -5.76476e-015
lhumerus 2.67858 -44.1385 82.3125
lradius 64.8631
lwrist 6.51924
lhand 4.99711 -27.303
lfingers 7.12502
lthumb 30.3672 0.217141
rfemur 3.94885 0.218358 14.8289
rtibia 6.36111e-015
rfoot -14.5243 -10.3617
rtoes -3.75399
lfemur -7.09575 -6.83601 -13.4698
ltibia 21.4011
lfoot -21.1217 10.8449
ltoes -55.3037
133
root -0.610326 18.7631 4.43778 3.07485 -1.26369 -1.21973
lowerback -2.73779 -0.515591 -1.60578
upperback -1.52456 -0.654678 1.55432
thorax 0.00769079 -0.313022 2.47708
lowerneck -12.0462 -4.14537 -6.27887
upperneck 33.9058 -5.54612 2.94156
head 13.7727 -2.86162 1.42215
rclavicle -4.75841e-015 1.74931e-014
rhumerus -19.2469 27.7174 -90.1828
rradius 64.4189
rwrist -1.41765
rhand -13.4153 -34.031
rfingers 7.12502
rthumb 12.6929 -63.6253
lclavicle -4.75841e-015 1.74931e-014
lhumerus 3.34091 -44.5953 81.8541
lradius 64.8493
lwrist 6.46297
lhand 5.01012 -27.3085
lfingers 7.12502
lthumb 30.3796 0.209404
rfemur 3.91252 0.286842 14.8314
rtibia 1.74931e-014
rfoot -14.5315 -10.3629
rtoes -3.62371
lfemur -7.08971 -6.80992 -13.4715
ltibia 21.3987
lfoot -21.1554 10.8849
ltoes -55.2701
134
root -0.608511 18.7627 4.44077 3.08296 -1.32569 -1.22376
lowerback -2.69284 -0.560432 -1.58605
upperback -1.50682 -0.715689 1.62694
thorax 0.00473759 -0.34358 2.5393
lowerneck -12.1078 -4.08603 -6.27026
upperneck 33.8883 -5.40778 2.803
head 13.7653 -2.81787 1.38564
rclavicle -1.01753e-014 6.55989e-015
rhumerus -19.0293 28.0437 -90.225
rradius 64.5473
rwrist -1.56977
rhand -13.4524 -34.2655
rfingers 7.12502
rthumb 12.6571 -63.862
lclavicle -1.01753e-014 6.55989e-015
lhumerus 4.03787 -44.9914 81.4066
lradius 64.7061
lwrist 6.33029
lhand 4.84967 -27.4893
lfingers 7.12502
lthumb 30.2266 0.0567383
rfemur 3.89776 0.347988 14.833
rtibia -1.35174e-014
rfoot -14.4932 -10.4237
rtoes -4.04043
lfemur -7.08229 -6.73907 -13.476
ltibia 21.4067
lfoot -21.1485 10.883
ltoes -55.3012
135
root -0.60769 18.7625 4.44439 3.09091 -1.39208 -1.21448
lowerback -2.68033 -0.587561 -1.58689
upperback -1.4525 -0.752465 1.68865
thorax 0.0562847 -0.362924 2.60202
lowerneck -12.1931 -4.05737 -6.22661
upperneck 33.8411 -5.31499 2.6454
head 13.7509 -2.79138 1.32777
rclavicle -9.43917e-015 4.96962e-015
rhumerus -18.7501 28.2705 -90.2178
rradius 64.6108
rwrist -1.68962
rhand -13.6763 -34.2841
rfingers 7.12502
rthumb 12.4412 -63.8938
lclavicle -9.43917e-015 4.96962e-015
lhumerus 4.83988 -45.3545 80.9622
lradius 64.282
lwrist 6.08975
lhand 4.75719 -27.7041
lfingers 7.12502
lthumb 30.1383 -0.141975
rfemur 3.88873 0.412801 14.822
rtibia 1.59028e-014
rfoot -14.4388 -10.4774
rtoes -4.75753
lfemur -7.06958 -6.63202 -13.4906
ltibia 21.4067
lfoot -21.1123 10.8655
ltoes -55.3658
136
root -0.607111 18.7614 4.44935 3.08121 -1.48835 -1.18173
lowerback -2.6327 -0.59429 -1.56663
upperback -1.41003 -0.762632 1.70606
thorax 0.0737419 -0.368691 2.60845
lowerneck -12.2659 -4.04055 -6.20444
upperneck 33.8315 -5.26701 2.57514
head 13.7569 -2.77611 1.3019
rclavicle 6.36732e-015 6.75868e-015
rhumerus -18.5316 28.4047 -90.2575
rradius 64.6235
rwrist -1.80516
rhand -13.8439 -33.933
rfingers 7.12502
rthumb 12.2796 -63.5525
lclavicle 6.36732e-015 6.75868e-015
lhumerus 5.57809 -45.7436 80.4995
lradius 63.8625
lwrist 5.91395
lhand 5.10543 -27.8816
lfingers 7.12502
lthumb 30.4705 -0.380543
rfemur 3.89981 0.507633 14.7842
rtibia -7.15625e-015
rfoot -14.4028 -10.504
rtoes -5.21488
lfemur -7.00878 -6.55608 -13.5385
ltibia 21.3852
lfoot -21.1206 10.8682
ltoes -55.3756
137
root -0.605205 18.7604 4.45586 3.06286 -1.59045 -1.12112
lowerback -2.5557 -0.5997 -1.53379
upperback -1.39206 -0.771298 1.6925
thorax 0.0490032 -0.37313 2.57644
lowerneck -12.3216 -4.01046 -6.1955
upperneck 33.8418 -5.22052 2.56993
head 13.7705 -2.75506 1.30452
rclavicle -6.23687e-015 -3.97569e-015
rhumerus -18.358 28.4382 -90.3516
rradius 64.6199
rwrist -1.93092
rhand -13.8012 -33.6994
rfingers 7.12502
rthumb 12.3208 -63.3164
lclavicle -6.23687e-015 -3.97569e-015
lhumerus 6.21874 -46.1858 79.951
lradius 63.6461
lwrist 5.91902
lhand 5.51535 -27.8768
lfingers 7.12502
lthumb 30.8614 -0.44902
rfemur 3.92433 0.60753 14.7119
rtibia 1.59028e-015
rfoot -14.3615 -10.5404
rtoes -5.43228
lfemur -6.91947 -6.58508 -13.6349
ltibia 21.3527
lfoot -21.1977 10.9641
ltoes -55.316
138
root -0.604457 18.7604 4.46157 3.06867 -1.63768 -1.07417
lowerback -2.45891 -0.623342 -1.51121
upperback -1.3997 -0.804089 1.69788
thorax -0.0113552 -0.388898 2.56947
lowerneck -12.3184 -3.97487 -6.19994
upperneck 33.8048 -5.1712 2.58401
head 13.751 -2.73242 1.31865
rclavicle -1.89156e-015 1.49089e-014
rhumerus -18.1995 28.4084 -90.4435
rradius 64.5995
rwrist -2.04532
rhand -13.57 -33.7175
rfingers 7.12502
rthumb 12.5437 -63.321
lclavicle -1.89156e-015 1.49089e-014
lhumerus 6.80131 -46.629 79.4086
lradius 63.4043
lwrist 5.98854
lhand 5.60622 -27.9029
lfingers 7.12502
lthumb 30.948 -0.491535
rfemur 3.93057 0.651398 14.6609
rtibia -3.18055e-015
rfoot -14.3165 -10.5905
rtoes -5.59917
lfemur -6.87329 -6.66707 -13.7042
ltibia 21.3219
lfoot -21.275 11.064
ltoes -55.2675
